<svg xmlns="http://www.w3.org/2000/svg" viewBox="0 0 16 16" width="1em" height="1em"><path fill="#44D860" d="M15.5 12.69h-.06v-.03a.4.4 0 1 0-.4-.7c-.02 0-.02-.01-.03-.02a.4.4 0 0 0-.25-.64.4.4 0 0 0-.45.24l-.04-.01.01-.06a.4.4 0 1 0-.81 0v.06h-.03a.4.4 0 1 0-.7.4 1.61 1.61 0 0 0 1.13 2.79c.76 0 1.4-.52 1.57-1.22h.05a.4.4 0 1 0 0-.81zm0-3.44a.2.2 0 1 0 0-.4h-.03v-.02a.2.2 0 0 0-.08-.4.2.2 0 0 0-.13.05v-.02a.2.2 0 0 0-.13-.31.2.2 0 0 0-.23.11.8.8 0 1 0 0 1.56.2.2 0 1 0 .35-.2l.01-.01a.2.2 0 0 0 .25 0 .2.2 0 0 0-.05-.35v-.02h.03z"></path><path fill="#3ECC5F" d="M1.72 13.1c-.6 0-1.12-.33-1.4-.81a1.62 1.62 0 0 0 1.4 2.43h11.34c.9 0 1.62-.73 1.62-1.62V3.37c0-.9-.72-1.62-1.62-1.62H5.77l-.2-.35a.23.23 0 0 0-.4 0l-.2.35-.21-.35a.23.23 0 0 0-.4 0l-.2.35-.21-.35a.23.23 0 0 0-.4 0l-.2.35h-.01L3 1.42a.23.23 0 0 0-.4.1l-.1.42-.42-.12a.23.23 0 0 0-.29.29l.11.42-.41.11a.23.23 0 0 0-.1.4l.33.33-.35.2a.23.23 0 0 0 0 .41l.35.2-.35.2a.23.23 0 0 0 0 .41l.35.2-.35.2a.23.23 0 0 0 0 .41l.35.2-.35.2a.23.23 0 0 0 0 .41l.35.2-.35.2a.23.23 0 0 0 0 .41l.35.2-.35.2a.23.23 0 0 0 0 .41l.35.2-.35.2a.23.23 0 0 0 0 .41l.35.2-.35.2a.23.23 0 0 0 0 .41l.35.2-.35.2a.23.23 0 0 0 0 .41l.35.2-.35.2a.23.23 0 0 0 0 .41l.35.2-.35.2a.23.23 0 0 0 0 .41l.35.2-.35.2a.23.23 0 0 0 0 .41l.35.2z"></path><path fill="#FFFF50" d="M8.2 14.72h4.86c.9 0 1.62-.73 1.62-1.62V7.42H9.82c-.6 0-1.12.33-1.4.81h1.4v1.62H8.2v1.62h1.62v3.25H8.2z"></path><path fill="#44D860" d="M11.44 12.69h-.05v-.03a.4.4 0 1 0-.4-.7l-.04-.02a.4.4 0 0 0-.24-.64.4.4 0 0 0-.45.24l-.04-.01v-.05a.4.4 0 0 0-.8 0v.05H9.4a.4.4 0 1 0-.7.4 1.62 1.62 0 0 0 1.13 2.79c.76 0 1.4-.52 1.57-1.22h.05a.4.4 0 0 0 0-.81zm-.81-3.44a.2.2 0 1 0 0-.4h-.02v-.02a.2.2 0 0 0-.09-.4.2.2 0 0 0-.12.05l-.01-.02a.2.2 0 0 0-.12-.31.2.2 0 0 0-.23.11.8.8 0 1 0 0 1.56.2.2 0 1 0 .35-.2l.01-.01a.2.2 0 0 0 .25 0 .2.2 0 0 0-.05-.35v-.02h.03z"></path><path fill="#fff" d="m9.01 4.54 5.67-.36v2.43l-5.67-.35a.86.86 0 0 1 0-1.72z"></path><path d="M4.96 4.39a.2.2 0 0 1-.2-.2.6.6 0 0 0-1.22 0 .2.2 0 0 1-.4 0 1.01 1.01 0 0 1 2.02 0 .2.2 0 0 1-.2.2zm9.72.49c-.25 0-.37.26-.47.48-.11.23-.2.38-.33.38-.16 0-.24-.18-.34-.36-.1-.22-.22-.45-.48-.44-.25 0-.37.22-.47.41-.11.2-.19.33-.33.33-.16 0-.24-.15-.34-.31-.1-.18-.23-.39-.48-.38-.24 0-.36.2-.47.36-.1.17-.19.28-.33.27-.16 0-.25-.12-.34-.26-.11-.15-.23-.32-.48-.31-.24 0-.36.16-.46.29-.1.13-.18.23-.34.22a.08.08 0 0 0-.01.16c.24.01.37-.14.48-.28.1-.12.17-.23.34-.23.15 0 .22.09.34.24.1.15.22.32.46.33.25 0 .37-.18.48-.34.1-.15.18-.28.34-.29.14 0 .22.11.33.3.1.18.23.38.47.39.25 0 .38-.21.48-.4.1-.18.18-.34.34-.34.14 0 .22.13.33.35.1.2.22.44.47.45h.01c.25 0 .37-.25.48-.47.09-.2.17-.38.32-.39v-.16zm-3.24-1.61a.22.22 0 0 1-.07-.01.21.21 0 0 1-.07-.05l-.02-.03a.2.2 0 0 1-.04-.11.22.22 0 0 1 .02-.08.2.2 0 0 1 .07-.09.21.21 0 0 1 .07-.03h.08a.2.2 0 0 1 .08.03.3.3 0 0 1 .03.03l.02.03a.22.22 0 0 1 .03.07v.04a.2.2 0 0 1-.12.19.2.2 0 0 1-.08.01zm1.62-.1a.2.2 0 0 1-.16-.09.21.21 0 0 1-.03-.11.2.2 0 0 1 .08-.17.21.21 0 0 1 .07-.03h.08a.2.2 0 0 1 .1.05.2.2 0 0 1 .05.23.3.3 0 0 1-.02.03l-.02.03a.21.21 0 0 1-.14.06z"></path></svg>