<svg xmlns="http://www.w3.org/2000/svg" width="1em" height="1em" fill="none" viewBox="0 0 16 17"><g clip-path="url(#qwik_svg__a)"><path fill="#18B6F6" d="m13.497 16.003-2.857-2.857-.044.006v-.031L4.52 7.088l1.497-1.453L5.137.56.965 5.76c-.71.72-.842 1.891-.33 2.756l2.607 4.347c.4.67 1.123 1.071 1.903 1.065l1.291-.012 7.062 2.086Z"></path><path fill="#AC7EF4" d="m15.056 5.66-.574-1.065-.3-.545-.118-.213-.013.012-1.572-2.737A2.199 2.199 0 0 0 10.552.003L9.173.041l-4.11.012c-.78.006-1.492.42-1.885 1.09L.677 6.13 5.149.548l5.864 6.478-1.042 1.058.624 5.068.006-.012v.012h-.012l.012.013.487.476 2.364 2.324c.1.094.262-.019.194-.138l-1.46-2.888 2.545-4.73.081-.093c.031-.038.063-.076.088-.113.499-.683.567-1.598.155-2.343Z"></path><path fill="#fff" d="M11.032 7 5.15.556l.835 5.049-1.497 1.46 6.095 6.082-.55-5.049.999-1.096Z"></path></g><defs><clipPath id="qwik_svg__a"><path fill="#fff" d="M0 0h16v16.003H0z"></path></clipPath></defs></svg>