<svg xmlns="http://www.w3.org/2000/svg" viewBox="0 0 16 16" width="1em" height="1em"><path fill="#3ACBD5" d="M4 2h8a2 2 0 0 1 2 2v8a2 2 0 0 1-2 2H4a2 2 0 0 1-2-2V4c0-1.1.9-2 2-2Z"></path><path fill="#88E8D1" d="M6 0a6 6 0 1 1 0 12A6 6 0 0 1 6 0Z"></path><path fill="#FFEC84" d="M7.2 8.61c-.17-.63-.25-.95-.17-1.16a.72.72 0 0 1 .42-.42c.21-.08.53 0 1.16.17l3.14.84c.63.17.94.26 1.09.44.13.16.18.36.15.56-.04.23-.27.46-.73.93l-2.3 2.3c-.46.45-.69.68-.92.72a.72.72 0 0 1-.56-.15c-.18-.15-.27-.46-.44-1.1L7.2 8.62Z"></path></svg>