<svg xmlns="http://www.w3.org/2000/svg" fill="#E9B749" viewBox="0 0 24 24" width="1em" height="1em"><path fill="url(#starlight_svg__a)" fill-rule="evenodd" d="M15.14 6.8 11.99 0 8.86 6.8l-.15.28-1.75-1.75A1.18 1.18 0 1 0 5.3 7l1.74 1.74-.2.1-.04.02L0 12l6.8 3.14.23.11L5.3 17a1.18 1.18 0 0 0 1.67 1.67l1.75-1.75.15.3L12 24l3.15-6.8.12-.23 1.7 1.7A1.18 1.18 0 1 0 18.63 17l-1.72-1.72.29-.15L24 12l-6.8-3.14-.3-.14L18.64 7a1.18 1.18 0 0 0-1.67-1.67l-1.7 1.7a4.18 4.18 0 0 1-.11-.21l-.01-.03Zm-3.15.35-.42.9a7.23 7.23 0 0 1-3.53 3.53l-.9.42.9.42a7.23 7.23 0 0 1 3.53 3.53l.42.9.41-.9a7.23 7.23 0 0 1 3.53-3.53l.9-.42-.9-.42a7.23 7.23 0 0 1-3.53-3.53l-.41-.9Zm10.16-3.68a1.18 1.18 0 0 0-1.66-1.67l-.57.57a1.18 1.18 0 0 0 1.67 1.66l.56-.56Zm-17.97.75c-.46.46-1.2.46-1.66 0l-.56-.56A1.18 1.18 0 0 1 3.62 2l.57.57c.45.45.45 1.2 0 1.66h-.01Zm0 15.56a1.17 1.17 0 0 0-1.66 0l-.56.56A1.18 1.18 0 0 0 3.62 22l.57-.57c.45-.45.45-1.2 0-1.66h-.01Zm17.97.75a1.18 1.18 0 0 1-1.66 1.67l-.57-.57a1.18 1.18 0 0 1 1.67-1.66l.56.56Z"></path><defs><linearGradient id="starlight_svg__a" x1="2" x2="22" y1="2" y2="22" gradientUnits="userSpaceOnUse"><stop stop-color="#FCDF9C"></stop><stop offset="1" stop-color="#DA990B"></stop></linearGradient></defs></svg>